v -0.5 -0.5  0.5
v  0.5 -0.5  0.5
v -0.5  0.5  0.5
v  0.5  0.5  0.5
v -0.5 -0.5 -0.5
v  0.5 -0.5 -0.5
v -0.5  0.5 -0.5
v  0.5  0.5 -0.5

vt 0.0 0.0
vt 1.0 0.0
vt 0.0 1.0
vt 1.0 1.0

vn  0.0  0.0  1.0
vn  0.0  0.0 -1.0
vn -1.0  0.0  0.0
vn  1.0  0.0  0.0
vn  0.0  1.0  0.0
vn  0.0 -1.0  0.0

# Face Format: v/vt/vn
# Front Face (Normal 1: 0,0,1)
f 1/1/1 2/2/1 4/4/1
f 1/1/1 4/4/1 3/3/1

# Back Face (Normal 2: 0,0,-1)
f 6/1/2 5/2/2 7/4/2
f 6/1/2 7/4/2 8/3/2

# Left Face (Normal 3: -1,0,0)
f 5/1/3 1/2/3 3/4/3
f 5/1/3 3/4/3 7/3/3

# Right Face (Normal 4: 1,0,0)
f 2/1/4 6/2/4 8/4/4
f 2/1/4 8/4/4 4/3/4

# Top Face (Normal 5: 0,1,0)
f 3/1/5 4/2/5 8/4/5
f 3/1/5 8/4/5 7/3/5

# Bottom Face (Normal 6: 0,-1,0)
f 5/1/6 6/2/6 2/4/6
f 5/1/6 2/4/6 1/3/6